# xmcd
#
# Track frame offsets:
#	150
#	21034
#	40975
#	74928
#	106349
#	136599
#	156653
#	183038
#	209150
#	244249
#
# Disc length: 3486 seconds
#
# Revision: 1
# Processed by: cddbd v1.5.2PL0 Copyright (c) Steve Scherf et al.
# Submitted via: audiograbber 1.83.01
#
DISCID=940d9c0a
DTITLE=stef burns - world,universe,infinity
DYEAR=2008
DGENRE=pop
TTITLE0=Begin
TTITLE1=In your room
TTITLE2=Burns' blues
TTITLE3=Mepukori
TTITLE4=Her brightest sun
TTITLE5=Space time
TTITLE6=On my way home
TTITLE7=Isle mystique
TTITLE8=Little wing
TTITLE9=Shine
EXTD=
EXTT0=
EXTT1=
EXTT2=
EXTT3=
EXTT4=
EXTT5=
EXTT6=
EXTT7=
EXTT8=
EXTT9=
PLAYORDER=
